

<svg version="1.1" id="Layer_1" xmlns="http://www.w3.org/2000/svg" xmlns:xlink="http://www.w3.org/1999/xlink" x="0px" y="0px"
	 viewBox="0 0 432 490" style="enable-background:new 0 0 432 490;" xml:space="preserve">
<style type="text/css">
	.st0{
		fill: #ccc;
		stroke:#ccc;
		stroke-miterlimit:19;
		
		stroke-dasharray: 5700;
		opacity: 9;
		animation: animate 4s cubic-bezier(.17,.67,.83,.67);
	}

	@keyframes animate {
		0% {
			opacity: 0;
			fill: none;
			stroke-dashoffset: 5700;
		}

		99% {
			fill: none;
		}
	}
</style>
<path class="st0" d="M196.15,484c-5.701,0-10.322-4.621-10.322-10.322c0-5.701,4.621-10.322,10.322-10.322
	c114.71,0,208.033-93.324,208.033-208.033V36.173c0-5.254-4.274-9.528-9.528-9.528s-9.528,4.274-9.528,9.528v219.15
	c0,104.203-84.774,188.977-188.977,188.977c-50.758,0-98.224-19.992-133.656-56.293C26.819,351.456,7.173,302.079,7.173,248.97
	V29.027c0-3.16,1.421-5.988,3.657-7.882C15.901,12.046,25.764,6,37.346,6c16.919,0,30.173,12.904,30.173,29.379v219.944
	c0,70.927,57.704,128.631,128.631,128.631s128.631-57.704,128.631-128.631S267.077,126.691,196.15,126.691
	c-16.637,0-30.173-13.536-30.173-30.173s13.536-30.173,30.173-30.173h0.794c58.573,0,112.906,26.585,149.066,72.938
	c3.506,4.494,2.705,10.981-1.79,14.488c-4.497,3.505-10.981,2.706-14.488-1.79c-32.221-41.303-80.621-64.992-132.789-64.992h-0.794
	c-5.254,0-9.528,4.274-9.528,9.528s4.274,9.528,9.528,9.528c82.311,0,149.276,66.964,149.276,149.276
	S278.461,404.598,196.15,404.598S46.874,337.634,46.874,255.322V35.379c0-5.061-4.007-8.734-9.528-8.734s-9.528,3.673-9.528,8.734
	V248.97c0,97.954,73.94,174.684,168.332,174.684c92.818,0,168.332-75.514,168.332-168.332V36.173
	C364.482,19.536,378.017,6,394.654,6s30.173,13.536,30.173,30.173v219.15C424.827,381.416,322.244,484,196.15,484z"/>
</svg>